:SAMPLES-PER-SECOND 30
:FULLY-SPECIFIED
:DEGREES
615
root  -21.4177 34.8075 -6.63955 -167.93 53.5451 -176.967
RightUpLeg  -8.5993 -3.51899 1.34414
RightLeg  1.89816 10.227 -0.314785
RightFoot  7.73795 -0.0521046 1.49256
RightToes  -27.8028 -0.128385 -0.235641
Spine  -0.930382 1.43265 1.58599
Spine1  -1.79738 2.9953 3.89568
HEad  -57.1515 -1.81163 1.71713
LeftShoulder1  -1.94126e-019 -3.10601e-018 -2.51263e-017
LeftArm  -0.945603 20.0544 -83.5371
LeftForeArm  26.1477 -32.2391 -5.59119
LeftHand  -0.238607 -0.179612 5.03474
RightShoulder  -4.96962e-017 0 -2.36833e-017
RightArm  3.93036 -9.4709 78.9433
RightForeArm  58.1248 67.5752 20.9157
RightHand  -0.940641 -0.492528 -22.165
LeftUpLeg  -12.3971 2.25632 1.25182
LeftLeg  16.5392 13.1988 2.981
LeftFoot  -0.657831 -0.000859341 0.0118112
LeftToes  -15.7319 1.34695e-006 1.12385e-007
616
root  -21.3 34.8225 -6.75492 -167.868 52.3519 -177.175
RightUpLeg  -7.7701 -4.68343 1.3386
RightLeg  0.5244 10.2049 -0.558285
RightFoot  8.02926 -0.0557693 1.53597
RightToes  -28.0442 -0.130688 -0.238145
Spine  -1.19396 0.714786 1.47925
Spine1  -2.3508 1.51142 3.72279
HEad  -58.3401 0.168606 2.22065
LeftShoulder1  -1.94126e-019 -3.10601e-018 -2.51263e-017
LeftArm  -1.22728 22.6377 -81.8704
LeftForeArm  26.1085 -40.9401 -7.99808
LeftHand  -0.186555 -0.0509131 4.02166
RightShoulder  -4.96962e-017 0 -2.36833e-017
RightArm  2.56342 -9.37653 80.0248
RightForeArm  63.7289 72.4145 28.0913
RightHand  -0.936367 0.200238 -19.4153
LeftUpLeg  -12.5122 3.08142 1.25094
LeftLeg  16.3637 11.2825 2.51855
LeftFoot  -0.704882 -0.000868518 0.0203094
LeftToes  -15.9664 1.34695e-006 1.12385e-007
617
root  -21.1534 34.8166 -6.86293 -167.749 51.8372 -177.229
RightUpLeg  -7.17974 -5.11346 1.34481
RightLeg  -0.283627 10.1494 -0.698445
RightFoot  8.08681 -0.056466 1.53613
RightToes  -28.5059 -0.133769 -0.241449
Spine  -1.5543 0.265195 1.3206
Spine1  -3.07749 0.601837 3.47593
HEad  -58.0279 1.75611 2.30967
LeftShoulder1  -1.94126e-019 -3.10601e-018 -2.51263e-017
LeftArm  -0.233045 24.8566 -79.9626
LeftForeArm  27.5751 -49.9648 -11.2444
LeftHand  -0.216111 -0.641552 4.2556
RightShoulder  -4.96962e-017 0 -2.36833e-017
RightArm  2.61156 -7.00815 81.3215
RightForeArm  62.7926 71.0723 25.5671
RightHand  -0.941713 0.469619 -18.6562
LeftUpLeg  -12.5215 3.96449 1.30635
LeftLeg  16.4441 9.88645 2.22475
LeftFoot  -0.992177 -0.001531 -0.0153094
LeftToes  -16.3204 1.34695e-006 1.12385e-007
618
root  -21.0438 34.7781 -6.92695 -166.931 51.7008 -176.366
RightUpLeg  -7.14596 -5.78694 1.88123
RightLeg  -0.214641 10.891 -0.735594
RightFoot  7.90354 -0.0620418 1.60509
RightToes  -29.9154 -0.143339 -0.251378
Spine  -1.83279 0.440801 1.28187
Spine1  -3.60496 0.980015 3.42085
HEad  -57.5201 1.72382 2.67641
LeftShoulder1  -1.94126e-019 -3.10601e-018 -2.51263e-017
LeftArm  0.601242 24.7013 -78.7093
LeftForeArm  29.2568 -57.7012 -15.3103
LeftHand  -0.230874 -1.24863 4.17781
RightShoulder  -4.96962e-017 0 -2.36833e-017
RightArm  3.00277 -5.47822 80.7164
RightForeArm  58.1446 67.2269 20.5276
RightHand  -0.85121 0.571247 -16.6158
LeftUpLeg  -13.1368 4.41477 1.91896
LeftLeg  17.8637 9.23541 2.31991
LeftFoot  -1.96749 -0.00564132 -0.167009
LeftToes  -17.6753 1.34695e-006 1.12385e-007
619
root  -20.9649 34.7217 -7.02078 -166.446 51.6579 -175.468
RightUpLeg  -6.98223 -7.49104 2.32845
RightLeg  0.223769 12.8267 -0.765946
RightFoot  7.6008 -0.0768539 1.80504
RightToes  -32.8767 -0.164224 -0.271454
Spine  -1.89841 1.01507 1.20195
Spine1  -3.68641 2.16427 3.24527
HEad  -57.6354 0.675275 3.12928
LeftShoulder1  -1.94126e-019 -3.10601e-018 -2.51263e-017
LeftArm  0.310685 22.4694 -78.4445
LeftForeArm  32.5941 -63.6664 -19.891
LeftHand  -0.220082 -1.6605 3.78892
RightShoulder  -4.96962e-017 0 -2.36833e-017
RightArm  4.09349 -5.42539 78.588
RightForeArm  50.9647 61.56 15.8818
RightHand  -0.619073 -0.05185 -13.4947
LeftUpLeg  -14.0178 5.71093 2.54556
LeftLeg  20.5848 7.68718 2.32474
LeftFoot  -3.49872 -0.0149353 -0.327488
LeftToes  -18.745 1.34695e-006 1.12385e-007
620
root  -20.9327 34.6586 -7.1378 -166.208 50.9214 -174.724
RightUpLeg  -6.55429 -8.71284 2.68277
RightLeg  0.45959 13.4916 -0.749488
RightFoot  7.39374 -0.0808697 1.84992
RightToes  -34.5181 -0.176239 -0.28211
Spine  -1.86716 1.43078 1.15282
Spine1  -3.58509 3.05663 3.08081
HEad  -58.08 -0.146061 3.26139
LeftShoulder1  -1.94126e-019 -3.10601e-018 -2.51263e-017
LeftArm  -1.02291 19.4046 -79.0298
LeftForeArm  37.261 -67.9079 -24.5337
LeftHand  -0.247533 -1.69561 4.22445
RightShoulder  -4.96962e-017 0 -2.36833e-017
RightArm  5.4567 -4.72312 77.5954
RightForeArm  43.6743 51.6556 10.7504
RightHand  -0.859503 1.4294 -14.7379
LeftUpLeg  -15.5456 8.15196 3.23751
LeftLeg  24.3562 4.61394 1.73511
LeftFoot  -4.44475 -0.0144394 -0.210564
LeftToes  -23.9104 1.34695e-006 1.12385e-007
